<svg width="24" height="24" viewBox="0 0 24 24" fill="none" xmlns="http://www.w3.org/2000/svg">
<path d="M12.1734 7.372C11.2974 7.372 9.94138 6.376 8.51338 6.412C6.62938 6.436 4.90138 7.504 3.92938 9.196C1.97338 12.592 3.42538 17.608 5.33338 20.368C6.26938 21.712 7.37338 23.224 8.83738 23.176C10.2414 23.116 10.7694 22.264 12.4734 22.264C14.1654 22.264 14.6454 23.176 16.1334 23.14C17.6454 23.116 18.6054 21.772 19.5294 20.416C20.5974 18.856 21.0414 17.344 21.0654 17.26C21.0294 17.248 18.1254 16.132 18.0894 12.772C18.0654 9.964 20.3814 8.62 20.4894 8.56C19.1694 6.628 17.1414 6.412 16.4334 6.364C14.5854 6.22 13.0374 7.372 12.1734 7.372V7.372ZM15.2934 4.54C16.0734 3.604 16.5894 2.296 16.4454 1C15.3294 1.048 13.9854 1.744 13.1814 2.68C12.4614 3.508 11.8374 4.84 12.0054 6.112C13.2414 6.208 14.5134 5.476 15.2934 4.54V4.54Z" fill="black"/>
</svg>
