<svg width="26" height="26" viewBox="0 0 26 26" fill="none" xmlns="http://www.w3.org/2000/svg">
<g id="Loading">
<g id="Ellipse 2" filter="url(#filter0_d)">
<path d="M25 12C25 18.6274 19.6274 24 13 24C6.37258 24 1 18.6274 1 12C1 5.37258 6.37258 0 13 0C19.6274 0 25 5.37258 25 12ZM3.4 12C3.4 17.3019 7.69807 21.6 13 21.6C18.3019 21.6 22.6 17.3019 22.6 12C22.6 6.69807 18.3019 2.4 13 2.4C7.69807 2.4 3.4 6.69807 3.4 12Z" fill="white" fill-opacity="0.2" shape-rendering="crispEdges"/>
</g>
<path id="Ellipse 1" d="M23.8 12C24.4627 12 25.0062 12.5386 24.9401 13.198C24.7286 15.3052 23.9623 17.3267 22.7094 19.0517C21.2207 21.1016 19.1214 22.6277 16.7122 23.4114C14.303 24.1951 11.7076 24.1962 9.29779 23.4146C6.88794 22.633 4.78729 21.1088 3.29674 19.0602C1.80619 17.0117 1.00222 14.5439 1 12.0105C0.997787 9.47707 1.79743 7.00793 3.28439 4.95678C4.77135 2.90563 6.86933 1.3777 9.27781 0.591876C11.3046 -0.0694302 13.4639 -0.176633 15.5339 0.270557C16.1817 0.410502 16.5269 1.09333 16.323 1.72392V1.72392C16.1191 2.35452 15.443 2.69241 14.7919 2.5687C13.2081 2.26779 11.5671 2.36945 10.0222 2.8735C8.09547 3.50216 6.41708 4.7245 5.22751 6.36542C4.03794 8.00635 3.39823 9.98166 3.4 12.0084C3.40178 14.0352 4.04495 16.0093 5.23739 17.6482C6.42983 19.287 8.11035 20.5064 10.0382 21.1317C11.9661 21.757 14.0424 21.7561 15.9698 21.1291C17.8971 20.5021 19.5765 19.2813 20.7676 17.6414C21.7225 16.3266 22.3241 14.7965 22.5251 13.1969C22.6077 12.5393 23.1373 12 23.8 12V12Z" fill="white"/>
</g>
<defs>
<filter id="filter0_d" x="0" y="0" width="26" height="26" filterUnits="userSpaceOnUse" color-interpolation-filters="sRGB">
<feFlood flood-opacity="0" result="BackgroundImageFix"/>
<feColorMatrix in="SourceAlpha" type="matrix" values="0 0 0 0 0 0 0 0 0 0 0 0 0 0 0 0 0 0 127 0" result="hardAlpha"/>
<feOffset dy="1"/>
<feGaussianBlur stdDeviation="0.5"/>
<feComposite in2="hardAlpha" operator="out"/>
<feColorMatrix type="matrix" values="0 0 0 0 0 0 0 0 0 0 0 0 0 0 0 0 0 0 0.04 0"/>
<feBlend mode="normal" in2="BackgroundImageFix" result="effect1_dropShadow"/>
<feBlend mode="normal" in="SourceGraphic" in2="effect1_dropShadow" result="shape"/>
</filter>
</defs>
</svg>
