<svg width="99" height="30" viewBox="0 0 99 30" fill="none" xmlns="http://www.w3.org/2000/svg">
<path d="M22.7161 10H25.2401C25.5748 10 25.8958 10.1317 26.1325 10.3661C26.3692 10.6005 26.5021 10.9185 26.5021 11.25V26.25C26.5021 26.5815 26.3692 26.8995 26.1325 27.1339C25.8958 27.3683 25.5748 27.5 25.2401 27.5H5.04802C4.71331 27.5 4.39232 27.3683 4.15564 27.1339C3.91897 26.8995 3.78601 26.5815 3.78601 26.25V11.25C3.78601 10.9185 3.91897 10.6005 4.15564 10.3661C4.39232 10.1317 4.71331 10 5.04802 10H7.57203V8.75C7.57203 6.76088 8.3698 4.85322 9.78983 3.4467C11.2099 2.04018 13.1358 1.25 15.1441 1.25C17.1523 1.25 19.0783 2.04018 20.4983 3.4467C21.9184 4.85322 22.7161 6.76088 22.7161 8.75V10ZM6.31003 12.5V25H23.9781V12.5H6.31003ZM13.8821 17.5H16.4061V20H13.8821V17.5ZM8.83404 17.5H11.3581V20H8.83404V17.5ZM18.9301 17.5H21.4541V20H18.9301V17.5ZM20.1921 10V8.75C20.1921 7.42392 19.6603 6.15215 18.7136 5.21447C17.7669 4.27678 16.4829 3.75 15.1441 3.75C13.8053 3.75 12.5213 4.27678 11.5746 5.21447C10.6279 6.15215 10.096 7.42392 10.096 8.75V10H20.1921Z" fill="#27B69C"/>
<path d="M38.7966 12.1875H40.5164V9.01032H42.3334C44.526 9.01032 45.7034 7.70639 45.7034 5.89742C45.7034 4.10222 44.5399 2.78452 42.3566 2.78452H38.7966V12.1875ZM40.5164 7.60997V4.20782H42.0924C43.381 4.20782 43.9512 4.89651 43.9512 5.89742C43.9512 6.89832 43.381 7.60997 42.1017 7.60997H40.5164Z" fill="#121212"/>
<path d="M49.0444 12.3298C50.1615 12.3298 50.829 11.811 51.1349 11.2187H51.1905V12.1875H52.8037V7.46764C52.8037 5.60357 51.2693 5.04344 49.9112 5.04344C48.4139 5.04344 47.2644 5.70458 46.8935 6.99015L48.4603 7.21053C48.6272 6.72844 49.1 6.31523 49.9204 6.31523C50.6992 6.31523 51.1256 6.71008 51.1256 7.40337V7.43091C51.1256 7.90841 50.6204 7.93136 49.3642 8.06451C47.9828 8.21143 46.6618 8.62006 46.6618 10.2087C46.6618 11.5952 47.6862 12.3298 49.0444 12.3298ZM49.4801 11.1085C48.7801 11.1085 48.2795 10.7917 48.2795 10.1811C48.2795 9.54291 48.8404 9.27662 49.5913 9.17102C50.0317 9.11133 50.9124 9.00114 51.1303 8.82667V9.65769C51.1303 10.4428 50.4906 11.1085 49.4801 11.1085Z" fill="#121212"/>
<path d="M60.1183 6.99933C59.8866 5.80559 58.9224 5.04344 57.2537 5.04344C55.5386 5.04344 54.3704 5.87905 54.3751 7.18298C54.3704 8.21143 55.0101 8.89095 56.3776 9.17102L57.592 9.42354C58.2456 9.56587 58.5516 9.82757 58.5516 10.227C58.5516 10.7091 58.0231 11.0718 57.2258 11.0718C56.4564 11.0718 55.9557 10.7412 55.812 10.1076L54.1757 10.2637C54.3843 11.5585 55.4829 12.3252 57.2305 12.3252C59.0105 12.3252 60.2667 11.4116 60.2713 10.0755C60.2667 9.07001 59.6131 8.45477 58.2688 8.16552L57.0543 7.90841C56.3312 7.74771 56.0438 7.49978 56.0484 7.09116C56.0438 6.61366 56.5769 6.28309 57.2768 6.28309C58.0509 6.28309 58.4589 6.7009 58.5886 7.16462L60.1183 6.99933Z" fill="#121212"/>
<path d="M67.2824 6.99933C67.0506 5.80559 66.0864 5.04344 64.4177 5.04344C62.7026 5.04344 61.5344 5.87905 61.5391 7.18298C61.5344 8.21143 62.1741 8.89095 63.5416 9.17102L64.7561 9.42354C65.4096 9.56587 65.7156 9.82757 65.7156 10.227C65.7156 10.7091 65.1871 11.0718 64.3899 11.0718C63.6204 11.0718 63.1198 10.7412 62.9761 10.1076L61.3398 10.2637C61.5484 11.5585 62.6469 12.3252 64.3945 12.3252C66.1745 12.3252 67.4307 11.4116 67.4353 10.0755C67.4307 9.07001 66.7771 8.45477 65.4328 8.16552L64.2183 7.90841C63.4952 7.74771 63.2078 7.49978 63.2125 7.09116C63.2078 6.61366 63.7409 6.28309 64.4408 6.28309C65.215 6.28309 65.6229 6.7009 65.7527 7.16462L67.2824 6.99933Z" fill="#121212"/>
<path d="M77.2902 5.36942H78.945C78.9126 3.78083 77.5451 2.65596 75.5241 2.65596C73.5309 2.65596 72.0336 3.76705 72.0383 5.4291C72.0383 6.77895 73.0071 7.55488 74.5692 7.95432L75.6493 8.2298C76.6737 8.48691 77.3504 8.80371 77.3551 9.53373C77.3504 10.3372 76.581 10.8744 75.4592 10.8744C74.3838 10.8744 73.5494 10.3969 73.4799 9.40976H71.788C71.8575 11.2784 73.262 12.3298 75.4731 12.3298C77.7491 12.3298 79.0702 11.205 79.0748 9.5475C79.0702 7.91759 77.712 7.1738 76.2843 6.83863L75.3943 6.61825C74.6156 6.4346 73.7719 6.10862 73.7812 5.32351C73.7858 4.61645 74.4255 4.09763 75.5009 4.09763C76.5253 4.09763 77.2021 4.57053 77.2902 5.36942Z" fill="#121212"/>
<path d="M82.5827 12.3298C83.6998 12.3298 84.3673 11.811 84.6732 11.2187H84.7289V12.1875H86.342V7.46764C86.342 5.60357 84.8077 5.04344 83.4495 5.04344C81.9522 5.04344 80.8027 5.70458 80.4318 6.99015L81.9986 7.21053C82.1655 6.72844 82.6383 6.31523 83.4588 6.31523C84.2375 6.31523 84.664 6.71008 84.664 7.40337V7.43091C84.664 7.90841 84.1587 7.93136 82.9025 8.06451C81.5212 8.21143 80.2001 8.62006 80.2001 10.2087C80.2001 11.5952 81.2245 12.3298 82.5827 12.3298ZM83.0184 11.1085C82.3184 11.1085 81.8178 10.7917 81.8178 10.1811C81.8178 9.54291 82.3787 9.27662 83.1296 9.17102C83.57 9.11133 84.4507 9.00114 84.6686 8.82667V9.65769C84.6686 10.4428 84.0289 11.1085 83.0184 11.1085Z" fill="#121212"/>
<path d="M91.6356 5.13526H90.1569V4.57971C90.1569 4.02876 90.3887 3.72114 91.0145 3.72114C91.2787 3.72114 91.5012 3.78083 91.6402 3.82215L91.9786 2.53659C91.7608 2.46312 91.2833 2.34375 90.7039 2.34375C89.4662 2.34375 88.4789 3.04622 88.4789 4.46952V5.13526H87.4267V6.42083H88.4789V12.1875H90.1569V6.42083H91.6356V5.13526Z" fill="#121212"/>
<path d="M95.8341 12.3252C97.4936 12.3252 98.6339 11.5218 98.9306 10.2959L97.3638 10.1214C97.1367 10.7183 96.5804 11.0305 95.8573 11.0305C94.7726 11.0305 94.0541 10.3234 94.0402 9.11592H99.0001V8.60629C99.0001 6.13157 97.4982 5.04344 95.7461 5.04344C93.7065 5.04344 92.3761 6.52643 92.3761 8.7027C92.3761 10.9157 93.6879 12.3252 95.8341 12.3252ZM94.0449 7.99564C94.0958 7.09575 94.768 6.33818 95.7692 6.33818C96.7334 6.33818 97.3824 7.03606 97.3916 7.99564H94.0449Z" fill="#121212"/>
<path d="M39.0293 19.9257H38.1138L40.7617 27.0685H41.6632L44.3111 19.9257H43.3956L41.2547 25.9385H41.1702L39.0293 19.9257Z" fill="#27B69C"/>
<path d="M52.5473 27.0685L53.2726 25.0456H56.1882L56.9136 27.0685H57.8291L55.1812 19.9257H54.2797L51.6318 27.0685H52.5473ZM53.5473 24.2783L54.7023 21.0557H54.7586L55.9136 24.2783H53.5473Z" fill="#27B69C"/>
<path d="M71.1217 19.9257V24.5853C71.1217 25.6316 70.3964 26.3849 69.1921 26.3849C67.9878 26.3849 67.2625 25.6316 67.2625 24.5853V19.9257H66.3892V24.655C66.3892 26.1199 67.4949 27.1941 69.1921 27.1941C70.8893 27.1941 71.995 26.1199 71.995 24.655V19.9257H71.1217Z" fill="#27B69C"/>
<path d="M81.1757 27.0685H85.4012V26.3012H82.049V19.9257H81.1757V27.0685Z" fill="#27B69C"/>
<path d="M92.8371 20.693H95.1048V27.0685H95.9781V20.693H98.2457V19.9257H92.8371V20.693Z" fill="#27B69C"/>
</svg>
